<?xml version="1.0" encoding="UTF-8"?>
<svg width="1024" height="1024" viewBox="0 0 1024 1024" fill="none" xmlns="http://www.w3.org/2000/svg">
  <!-- Background -->
  <rect width="1024" height="1024" rx="230" fill="url(#gradient)"/>
  
  <!-- QR Code Pattern -->
  <!-- Top-left finder pattern -->
  <rect x="160" y="160" width="240" height="240" fill="white"/>
  <rect x="180" y="180" width="200" height="200" fill="#1C1C1E"/>
  <rect x="220" y="220" width="120" height="120" fill="white"/>
  <rect x="240" y="240" width="80" height="80" fill="#1C1C1E"/>
  
  <!-- Top-right finder pattern -->
  <rect x="624" y="160" width="240" height="240" fill="white"/>
  <rect x="644" y="180" width="200" height="200" fill="#1C1C1E"/>
  <rect x="684" y="220" width="120" height="120" fill="white"/>
  <rect x="704" y="240" width="80" height="80" fill="#1C1C1E"/>
  
  <!-- Bottom-left finder pattern -->
  <rect x="160" y="624" width="240" height="240" fill="white"/>
  <rect x="180" y="644" width="200" height="200" fill="#1C1C1E"/>
  <rect x="220" y="684" width="120" height="120" fill="white"/>
  <rect x="240" y="704" width="80" height="80" fill="#1C1C1E"/>
  
  <!-- Data modules (simplified pattern) -->
  <rect x="440" y="200" width="40" height="40" fill="white"/>
  <rect x="500" y="200" width="40" height="40" fill="white"/>
  <rect x="440" y="260" width="40" height="40" fill="white"/>
  <rect x="500" y="320" width="40" height="40" fill="white"/>
  <rect x="560" y="260" width="40" height="40" fill="white"/>
  
  <rect x="200" y="440" width="40" height="40" fill="white"/>
  <rect x="260" y="440" width="40" height="40" fill="white"/>
  <rect x="320" y="440" width="40" height="40" fill="white"/>
  <rect x="200" y="500" width="40" height="40" fill="white"/>
  <rect x="260" y="500" width="40" height="40" fill="white"/>
  
  <rect x="440" y="440" width="40" height="40" fill="white"/>
  <rect x="500" y="440" width="40" height="40" fill="white"/>
  <rect x="560" y="440" width="40" height="40" fill="white"/>
  <rect x="440" y="500" width="40" height="40" fill="white"/>
  <rect x="500" y="500" width="40" height="40" fill="white"/>
  <rect x="560" y="500" width="40" height="40" fill="white"/>
  <rect x="440" y="560" width="40" height="40" fill="white"/>
  <rect x="560" y="560" width="40" height="40" fill="white"/>
  
  <rect x="664" y="440" width="40" height="40" fill="white"/>
  <rect x="724" y="440" width="40" height="40" fill="white"/>
  <rect x="784" y="440" width="40" height="40" fill="white"/>
  <rect x="664" y="500" width="40" height="40" fill="white"/>
  <rect x="784" y="500" width="40" height="40" fill="white"/>
  
  <rect x="440" y="664" width="40" height="40" fill="white"/>
  <rect x="500" y="664" width="40" height="40" fill="white"/>
  <rect x="560" y="664" width="40" height="40" fill="white"/>
  <rect x="440" y="724" width="40" height="40" fill="white"/>
  <rect x="500" y="784" width="40" height="40" fill="white"/>
  <rect x="560" y="724" width="40" height="40" fill="white"/>
  
  <!-- Small alignment pattern -->
  <rect x="654" y="654" width="100" height="100" fill="white"/>
  <rect x="664" y="664" width="80" height="80" fill="#1C1C1E"/>
  <rect x="684" y="684" width="40" height="40" fill="white"/>
  
  <!-- Gradient Definition -->
  <defs>
    <linearGradient id="gradient" x1="0" y1="0" x2="1024" y2="1024" gradientUnits="userSpaceOnUse">
      <stop stop-color="#007AFF"/>
      <stop offset="1" stop-color="#5856D6"/>
    </linearGradient>
  </defs>
</svg>